<mxfile host="Electron" agent="Mozilla/5.0 (Macintosh; Intel Mac OS X 10_15_7) AppleWebKit/537.36 (KHTML, like Gecko) draw.io/26.0.16 Chrome/132.0.6834.196 Electron/34.2.0 Safari/537.36" version="26.0.16">
  <diagram name="Page-1" id="fnoneULLyrAwq8QRB4Mz">
    <mxGraphModel dx="2385" dy="1555" grid="1" gridSize="10" guides="1" tooltips="1" connect="1" arrows="1" fold="1" page="1" pageScale="1" pageWidth="3300" pageHeight="2339" math="0" shadow="0">
      <root>
        <mxCell id="0" />
        <mxCell id="1" parent="0" />
        <mxCell id="_zIWgzj3H0braTBLbQSI-34" value="Customer" style="rounded=0;whiteSpace=wrap;html=1;fontSize=14;fillColor=#f5f5f5;strokeColor=#666666;fontColor=#333333;" vertex="1" parent="1">
          <mxGeometry x="660" y="840" width="140" height="70" as="geometry" />
        </mxCell>
        <mxCell id="_zIWgzj3H0braTBLbQSI-35" value="Admin" style="rounded=0;whiteSpace=wrap;html=1;fontSize=14;fillColor=#f5f5f5;strokeColor=#666666;fontColor=#333333;" vertex="1" parent="1">
          <mxGeometry x="1670" y="840" width="140" height="70" as="geometry" />
        </mxCell>
        <mxCell id="_zIWgzj3H0braTBLbQSI-36" value="Social Media" style="rounded=0;whiteSpace=wrap;html=1;fontSize=14;fillColor=#f5f5f5;strokeColor=#666666;fontColor=#333333;" vertex="1" parent="1">
          <mxGeometry x="1040" y="270" width="140" height="70" as="geometry" />
        </mxCell>
        <mxCell id="_zIWgzj3H0braTBLbQSI-37" value="1.0&#xa;User Management" style="ellipse;whiteSpace=wrap;html=1;aspect=fixed;fontSize=14;fillColor=#dae8fc;strokeColor=#6c8ebf;" vertex="1" parent="1">
          <mxGeometry x="880" y="580" width="120" height="120" as="geometry" />
        </mxCell>
        <mxCell id="_zIWgzj3H0braTBLbQSI-38" value="2.0&#xa;Appointment&#xa;System" style="ellipse;whiteSpace=wrap;html=1;aspect=fixed;fontSize=14;fillColor=#dae8fc;strokeColor=#6c8ebf;" vertex="1" parent="1">
          <mxGeometry x="1090" y="815" width="120" height="120" as="geometry" />
        </mxCell>
        <mxCell id="_zIWgzj3H0braTBLbQSI-39" value="3.0&#xa;Carbon&#xa;Calculator" style="ellipse;whiteSpace=wrap;html=1;aspect=fixed;fontSize=14;fillColor=#dae8fc;strokeColor=#6c8ebf;" vertex="1" parent="1">
          <mxGeometry x="880" y="960" width="120" height="120" as="geometry" />
        </mxCell>
        <mxCell id="_zIWgzj3H0braTBLbQSI-40" value="4.0&#xa;Social Media&#xa;Integration" style="ellipse;whiteSpace=wrap;html=1;aspect=fixed;fontSize=14;fillColor=#dae8fc;strokeColor=#6c8ebf;" vertex="1" parent="1">
          <mxGeometry x="1090" y="690" width="120" height="120" as="geometry" />
        </mxCell>
        <mxCell id="_zIWgzj3H0braTBLbQSI-41" value="5.0&#xa;System&#xa;Administration" style="ellipse;whiteSpace=wrap;html=1;aspect=fixed;fontSize=14;fillColor=#dae8fc;strokeColor=#6c8ebf;" vertex="1" parent="1">
          <mxGeometry x="1290" y="815" width="120" height="120" as="geometry" />
        </mxCell>
        <mxCell id="_zIWgzj3H0braTBLbQSI-42" value="D1: User Data" style="shape=partialRectangle;whiteSpace=wrap;html=1;left=0;right=0;fillColor=#fff2cc;strokeColor=#d6b656;fontSize=14;" vertex="1" parent="1">
          <mxGeometry x="860" y="1160" width="160" height="60" as="geometry" />
        </mxCell>
        <mxCell id="_zIWgzj3H0braTBLbQSI-43" value="D2: Appointment Data" style="shape=partialRectangle;whiteSpace=wrap;html=1;left=0;right=0;fillColor=#fff2cc;strokeColor=#d6b656;fontSize=14;" vertex="1" parent="1">
          <mxGeometry x="1070" y="1370" width="160" height="60" as="geometry" />
        </mxCell>
        <mxCell id="_zIWgzj3H0braTBLbQSI-44" value="D3: Carbon Data" style="shape=partialRectangle;whiteSpace=wrap;html=1;left=0;right=0;fillColor=#fff2cc;strokeColor=#d6b656;fontSize=14;" vertex="1" parent="1">
          <mxGeometry x="1360" y="1120" width="160" height="60" as="geometry" />
        </mxCell>
        <mxCell id="_zIWgzj3H0braTBLbQSI-45" value="Registration Data" style="endArrow=classic;html=1;fontSize=12;exitX=1;exitY=0.25;exitDx=0;exitDy=0;entryX=0;entryY=0.5;entryDx=0;entryDy=0;edgeStyle=orthogonalEdgeStyle;" edge="1" parent="1" source="_zIWgzj3H0braTBLbQSI-34" target="_zIWgzj3H0braTBLbQSI-37">
          <mxGeometry x="-0.0842" y="10" width="50" height="50" relative="1" as="geometry">
            <mxPoint x="800" y="857.5" as="sourcePoint" />
            <mxPoint x="850" y="750" as="targetPoint" />
            <Array as="points">
              <mxPoint x="820" y="858" />
              <mxPoint x="820" y="750" />
            </Array>
            <mxPoint as="offset" />
          </mxGeometry>
        </mxCell>
        <mxCell id="_zIWgzj3H0braTBLbQSI-46" value="Appointment Request" style="endArrow=classic;html=1;fontSize=12;exitX=1;exitY=0.5;exitDx=0;exitDy=0;entryX=0;entryY=0.5;entryDx=0;entryDy=0;" edge="1" parent="1" source="_zIWgzj3H0braTBLbQSI-34" target="_zIWgzj3H0braTBLbQSI-38">
          <mxGeometry x="-0.5172" y="5" width="50" height="50" relative="1" as="geometry">
            <mxPoint x="800" y="875" as="sourcePoint" />
            <mxPoint x="1080" y="875" as="targetPoint" />
            <mxPoint as="offset" />
          </mxGeometry>
        </mxCell>
        <mxCell id="_zIWgzj3H0braTBLbQSI-47" value="Carbon Data Input" style="endArrow=classic;html=1;fontSize=12;exitX=1;exitY=0.75;exitDx=0;exitDy=0;entryX=0;entryY=0.5;entryDx=0;entryDy=0;edgeStyle=orthogonalEdgeStyle;" edge="1" parent="1" source="_zIWgzj3H0braTBLbQSI-34" target="_zIWgzj3H0braTBLbQSI-39">
          <mxGeometry x="-0.126" y="10" width="50" height="50" relative="1" as="geometry">
            <mxPoint x="800" y="892.5" as="sourcePoint" />
            <mxPoint x="880" y="1000" as="targetPoint" />
            <Array as="points">
              <mxPoint x="820" y="893" />
              <mxPoint x="820" y="1020" />
            </Array>
            <mxPoint as="offset" />
          </mxGeometry>
        </mxCell>
        <mxCell id="_zIWgzj3H0braTBLbQSI-48" value="User Profile" style="endArrow=classic;html=1;fontSize=12;exitX=0;exitY=0.75;exitDx=0;exitDy=0;entryX=0.5;entryY=0;entryDx=0;entryDy=0;edgeStyle=orthogonalEdgeStyle;" edge="1" parent="1" source="_zIWgzj3H0braTBLbQSI-37" target="_zIWgzj3H0braTBLbQSI-34">
          <mxGeometry x="-0.3846" y="-10" width="50" height="50" relative="1" as="geometry">
            <mxPoint x="880" y="780" as="sourcePoint" />
            <mxPoint x="730" y="820" as="targetPoint" />
            <Array as="points">
              <mxPoint x="730" y="780" />
            </Array>
            <mxPoint as="offset" />
          </mxGeometry>
        </mxCell>
        <mxCell id="_zIWgzj3H0braTBLbQSI-49" value="Appointment Confirmation" style="endArrow=classic;html=1;fontSize=12;exitX=0;exitY=0.75;exitDx=0;exitDy=0;entryX=0.25;entryY=1;entryDx=0;entryDy=0;edgeStyle=orthogonalEdgeStyle;" edge="1" parent="1" source="_zIWgzj3H0braTBLbQSI-38" target="_zIWgzj3H0braTBLbQSI-34">
          <mxGeometry x="-0.4211" y="-15" width="50" height="50" relative="1" as="geometry">
            <mxPoint x="1090" y="905" as="sourcePoint" />
            <mxPoint x="695" y="920" as="targetPoint" />
            <Array as="points">
              <mxPoint x="1090" y="970" />
              <mxPoint x="695" y="970" />
            </Array>
            <mxPoint as="offset" />
          </mxGeometry>
        </mxCell>
        <mxCell id="_zIWgzj3H0braTBLbQSI-50" value="Carbon Footprint Results" style="endArrow=classic;html=1;fontSize=12;exitX=0;exitY=0.25;exitDx=0;exitDy=0;entryX=0.75;entryY=1;entryDx=0;entryDy=0;edgeStyle=orthogonalEdgeStyle;" edge="1" parent="1" source="_zIWgzj3H0braTBLbQSI-39" target="_zIWgzj3H0braTBLbQSI-34">
          <mxGeometry x="-0.2" y="-10" width="50" height="50" relative="1" as="geometry">
            <mxPoint x="880" y="990" as="sourcePoint" />
            <mxPoint x="765" y="920" as="targetPoint" />
            <Array as="points">
              <mxPoint x="765" y="990" />
            </Array>
            <mxPoint as="offset" />
          </mxGeometry>
        </mxCell>
        <mxCell id="_zIWgzj3H0braTBLbQSI-51" value="Store User Data" style="endArrow=classic;html=1;fontSize=12;exitX=0.5;exitY=1;exitDx=0;exitDy=0;entryX=0.5;entryY=0;entryDx=0;entryDy=0;edgeStyle=orthogonalEdgeStyle;" edge="1" parent="1">
          <mxGeometry x="-0.7391" y="10" width="50" height="50" relative="1" as="geometry">
            <mxPoint x="950" y="700" as="sourcePoint" />
            <mxPoint x="950" y="1160" as="targetPoint" />
            <Array as="points">
              <mxPoint x="950" y="840" />
              <mxPoint x="950" y="840" />
            </Array>
            <mxPoint as="offset" />
          </mxGeometry>
        </mxCell>
        <mxCell id="_zIWgzj3H0braTBLbQSI-52" value="Retrieve User Data" style="endArrow=classic;html=1;fontSize=12;exitX=0.25;exitY=0;exitDx=0;exitDy=0;entryX=0.25;entryY=1;entryDx=0;entryDy=0;edgeStyle=orthogonalEdgeStyle;" edge="1" parent="1" source="_zIWgzj3H0braTBLbQSI-42" target="_zIWgzj3H0braTBLbQSI-39">
          <mxGeometry x="-0.2113" y="-10" width="50" height="50" relative="1" as="geometry">
            <mxPoint x="900" y="1160" as="sourcePoint" />
            <mxPoint x="910" y="1090" as="targetPoint" />
            <Array as="points">
              <mxPoint x="900" y="1120" />
              <mxPoint x="910" y="1120" />
            </Array>
            <mxPoint as="offset" />
          </mxGeometry>
        </mxCell>
        <mxCell id="_zIWgzj3H0braTBLbQSI-53" value="Store Appointment Data" style="endArrow=classic;html=1;fontSize=12;exitX=0.5;exitY=1;exitDx=0;exitDy=0;entryX=0.5;entryY=0;entryDx=0;entryDy=0;" edge="1" parent="1" source="_zIWgzj3H0braTBLbQSI-38" target="_zIWgzj3H0braTBLbQSI-43">
          <mxGeometry width="50" height="50" relative="1" as="geometry">
            <mxPoint x="1150" y="935" as="sourcePoint" />
            <mxPoint x="1150" y="1160" as="targetPoint" />
          </mxGeometry>
        </mxCell>
        <mxCell id="_zIWgzj3H0braTBLbQSI-54" value="Retrieve&#xa;Appointment Data" style="endArrow=classic;html=1;fontSize=12;exitX=0.25;exitY=0;exitDx=0;exitDy=0;entryX=0.25;entryY=1;entryDx=0;entryDy=0;" edge="1" parent="1" source="_zIWgzj3H0braTBLbQSI-43" target="_zIWgzj3H0braTBLbQSI-38">
          <mxGeometry x="-0.3846" y="-10" width="50" height="50" relative="1" as="geometry">
            <mxPoint x="1110" y="1160" as="sourcePoint" />
            <mxPoint x="1120" y="935" as="targetPoint" />
            <mxPoint as="offset" />
          </mxGeometry>
        </mxCell>
        <mxCell id="_zIWgzj3H0braTBLbQSI-55" value="Store Carbon Data" style="endArrow=classic;html=1;fontSize=12;exitX=1;exitY=1;exitDx=0;exitDy=0;entryX=0;entryY=0;entryDx=0;entryDy=0;edgeStyle=orthogonalEdgeStyle;" edge="1" parent="1" source="_zIWgzj3H0braTBLbQSI-39" target="_zIWgzj3H0braTBLbQSI-44">
          <mxGeometry x="0.0141" y="10" width="50" height="50" relative="1" as="geometry">
            <mxPoint x="982" y="1062" as="sourcePoint" />
            <mxPoint x="1270" y="1160" as="targetPoint" />
            <Array as="points">
              <mxPoint x="982" y="1110" />
              <mxPoint x="1270" y="1110" />
            </Array>
            <mxPoint as="offset" />
          </mxGeometry>
        </mxCell>
        <mxCell id="_zIWgzj3H0braTBLbQSI-56" value="Retrieve Carbon Data" style="endArrow=classic;html=1;fontSize=12;exitX=0;exitY=0.5;exitDx=0;exitDy=0;entryX=1;entryY=0.75;entryDx=0;entryDy=0;edgeStyle=orthogonalEdgeStyle;" edge="1" parent="1" source="_zIWgzj3H0braTBLbQSI-44">
          <mxGeometry x="-0.6581" width="50" height="50" relative="1" as="geometry">
            <mxPoint x="1368" y="1133.7699999999998" as="sourcePoint" />
            <mxPoint x="1001.9393921302299" y="1030.0481653967786" as="targetPoint" />
            <Array as="points">
              <mxPoint x="1360" y="1174" />
              <mxPoint x="1198" y="1174" />
              <mxPoint x="1198" y="1034" />
              <mxPoint x="990" y="1034" />
              <mxPoint x="990" y="1030" />
            </Array>
            <mxPoint as="offset" />
          </mxGeometry>
        </mxCell>
        <mxCell id="_zIWgzj3H0braTBLbQSI-57" value="System Management" style="endArrow=classic;html=1;fontSize=12;exitX=0;exitY=0.25;exitDx=0;exitDy=0;entryX=1;entryY=0.25;entryDx=0;entryDy=0;" edge="1" parent="1" source="_zIWgzj3H0braTBLbQSI-35" target="_zIWgzj3H0braTBLbQSI-41">
          <mxGeometry x="-0.0842" y="10" width="50" height="50" relative="1" as="geometry">
            <mxPoint x="1490" y="858" as="sourcePoint" />
            <mxPoint x="1410" y="858" as="targetPoint" />
            <mxPoint as="offset" />
          </mxGeometry>
        </mxCell>
        <mxCell id="_zIWgzj3H0braTBLbQSI-58" value="Admin Reports" style="endArrow=classic;html=1;fontSize=12;exitX=1;exitY=0.75;exitDx=0;exitDy=0;entryX=0;entryY=0.75;entryDx=0;entryDy=0;" edge="1" parent="1" source="_zIWgzj3H0braTBLbQSI-41" target="_zIWgzj3H0braTBLbQSI-35">
          <mxGeometry x="-0.0842" y="10" width="50" height="50" relative="1" as="geometry">
            <mxPoint x="1410" y="892" as="sourcePoint" />
            <mxPoint x="1490" y="892" as="targetPoint" />
            <mxPoint as="offset" />
          </mxGeometry>
        </mxCell>
        <mxCell id="_zIWgzj3H0braTBLbQSI-59" value="Social Media Content" style="endArrow=classic;html=1;fontSize=12;exitX=0.5;exitY=1;exitDx=0;exitDy=0;entryX=0.5;entryY=0;entryDx=0;entryDy=0;" edge="1" parent="1" source="_zIWgzj3H0braTBLbQSI-36" target="_zIWgzj3H0braTBLbQSI-40">
          <mxGeometry width="50" height="50" relative="1" as="geometry">
            <mxPoint x="1150" y="630" as="sourcePoint" />
            <mxPoint x="1150" y="690" as="targetPoint" />
          </mxGeometry>
        </mxCell>
        <mxCell id="_zIWgzj3H0braTBLbQSI-60" value="Social Media Posts" style="endArrow=classic;html=1;fontSize=12;exitX=0.5;exitY=0;exitDx=0;exitDy=0;entryX=0.75;entryY=1;entryDx=0;entryDy=0;edgeStyle=orthogonalEdgeStyle;" edge="1" parent="1" source="_zIWgzj3H0braTBLbQSI-40" target="_zIWgzj3H0braTBLbQSI-36">
          <mxGeometry x="-0.2" y="-10" width="50" height="50" relative="1" as="geometry">
            <mxPoint x="1150" y="690" as="sourcePoint" />
            <mxPoint x="1185" y="630" as="targetPoint" />
            <Array as="points">
              <mxPoint x="1150" y="660" />
              <mxPoint x="1185" y="660" />
            </Array>
            <mxPoint as="offset" />
          </mxGeometry>
        </mxCell>
        <mxCell id="_zIWgzj3H0braTBLbQSI-61" value="User Verification" style="endArrow=classic;html=1;fontSize=12;exitX=1;exitY=0.5;exitDx=0;exitDy=0;entryX=0;entryY=0;entryDx=0;entryDy=0;" edge="1" parent="1" source="_zIWgzj3H0braTBLbQSI-37" target="_zIWgzj3H0braTBLbQSI-38">
          <mxGeometry x="-0.3924" y="-3" width="50" height="50" relative="1" as="geometry">
            <mxPoint x="1000" y="750" as="sourcePoint" />
            <mxPoint x="1090" y="833" as="targetPoint" />
            <mxPoint as="offset" />
          </mxGeometry>
        </mxCell>
        <mxCell id="_zIWgzj3H0braTBLbQSI-62" value="Admin Access" style="endArrow=classic;html=1;fontSize=12;exitX=0;exitY=0.5;exitDx=0;exitDy=0;entryX=1;entryY=0.5;entryDx=0;entryDy=0;" edge="1" parent="1" source="_zIWgzj3H0braTBLbQSI-41" target="_zIWgzj3H0braTBLbQSI-38">
          <mxGeometry width="50" height="50" relative="1" as="geometry">
            <mxPoint x="1290" y="875" as="sourcePoint" />
            <mxPoint x="1210" y="875" as="targetPoint" />
          </mxGeometry>
        </mxCell>
        <mxCell id="_zIWgzj3H0braTBLbQSI-63" value="User Data" style="endArrow=classic;html=1;fontSize=12;exitX=0.5;exitY=1;exitDx=0;exitDy=0;entryX=0.5;entryY=0;entryDx=0;entryDy=0;" edge="1" parent="1">
          <mxGeometry x="-0.2308" y="-20" width="50" height="50" relative="1" as="geometry">
            <mxPoint x="930" y="700" as="sourcePoint" />
            <mxPoint x="930" y="960" as="targetPoint" />
            <mxPoint as="offset" />
          </mxGeometry>
        </mxCell>
        <mxCell id="_zIWgzj3H0braTBLbQSI-64" value="Social Share" style="endArrow=classic;html=1;fontSize=12;exitX=0.5;exitY=0;exitDx=0;exitDy=0;entryX=0;entryY=1;entryDx=0;entryDy=0;edgeStyle=orthogonalEdgeStyle;" edge="1" parent="1" source="_zIWgzj3H0braTBLbQSI-39" target="_zIWgzj3H0braTBLbQSI-40">
          <mxGeometry x="0.4178" y="-8" width="50" height="50" relative="1" as="geometry">
            <mxPoint x="940" y="960" as="sourcePoint" />
            <mxPoint x="1090" y="790" as="targetPoint" />
            <Array as="points">
              <mxPoint x="940" y="890" />
              <mxPoint x="990" y="890" />
              <mxPoint x="990" y="792" />
            </Array>
            <mxPoint as="offset" />
          </mxGeometry>
        </mxCell>
      </root>
    </mxGraphModel>
  </diagram>
</mxfile>
